screens;
 
http://imgcum.com/img-507f16ce6d437.html
 
http://imgcum.com/img-507f16ab22b6e.html


Format                                   : Windows Media
File size                                : 512 MiB
Duration                                 : 30mn 20s
Overall bit rate mode                    : Constant
Overall bit rate                         : 2 362 Kbps
Maximum Overall bit rate                 : 2 380 Kbps
Encoded date                             : UTC 2010-01-09 23:46:25.546 / UTC 1995-02-07 12:26:40
MediaFoundationVersion                   : 2.112

Video
ID                                       : 2
Format                                   : VC-1
Format profile                           : MP@HL
Codec ID                                 : WMV3
Codec ID/Info                            : Windows Media Video 9
Codec ID/Hint                            : WMV3
Description of the codec                 : Windows Media Video 9 - Professional
Duration                                 : 30mn 20s
Bit rate mode                            : Constant
Bit rate                                 : 2 300 Kbps
Width                                    : 768 pixels
Height                                   : 432 pixels
Display aspect ratio                     : 16:9
Frame rate                               : 29.970 fps
Bit depth                                : 8 bits
Scan type                                : Progressive
Compression mode                         : Lossy
Bits/(Pixel*Frame)                       : 0.231
Stream size                              : 499 MiB (97%)
Language                                 : English (US)

Audio
ID                                       : 1
Format                                   : WMA
Format version                           : Version 2
Codec ID                                 : 161
Codec ID/Info                            : Windows Media Audio
Description of the codec                 : Windows Media Audio 9 -  64 kbps, 44 kHz, stereo (A/V) 1-pass CBR
Duration                                 : 30mn 20s
Bit rate mode                            : Constant
Bit rate                                 : 64.0 Kbps
Channel(s)                               : 2 channels
Sampling rate                            : 44.1 KHz
Bit depth                                : 16 bits
Stream size                              : 13.9 MiB (3%)
Language                                 : English (US)

